<?xml version="1.0" standalone="no"?>
<!DOCTYPE svg PUBLIC "-//W3C//DTD SVG 20010904//EN"
 "http://www.w3.org/TR/2001/REC-SVG-20010904/DTD/svg10.dtd">
<svg version="1.0" xmlns="http://www.w3.org/2000/svg"
 width="640.000000pt" height="640.000000pt" viewBox="0 0 640.000000 640.000000"
 preserveAspectRatio="xMidYMid meet">
<metadata>
Created by potrace 1.14, written by Peter Selinger 2001-2017
</metadata>
<g transform="translate(0.000000,640.000000) scale(0.100000,-0.100000)"
fill="#000000" stroke="none">
<path d="M4690 5739 c-94 -34 -190 -143 -204 -234 -2 -16 -5 -30 -6 -30 -1 0
-2 -26 -3 -58 -1 -31 0 -57 3 -57 3 0 4 -28 2 -62 -2 -72 -4 -301 -1 -314 1
-5 1 -13 0 -19 -2 -8 -1 -163 0 -250 0 -5 0 -26 0 -45 -1 -19 -1 -43 -1 -52 1
-50 1 -276 0 -293 -1 -11 -1 -26 -1 -32 1 -63 1 -107 -2 -156 -1 -31 0 -57 3
-57 3 0 4 -28 2 -62 -2 -72 -4 -301 -1 -314 1 -5 1 -13 0 -19 -2 -8 -1 -163 0
-250 0 -5 0 -26 0 -45 -1 -19 -1 -43 -1 -52 1 -50 1 -276 0 -293 -1 -11 -1
-26 -1 -32 1 -63 1 -107 -2 -156 -1 -31 0 -57 3 -57 3 0 4 -28 2 -62 -2 -72
-4 -301 -1 -314 1 -5 1 -13 0 -19 -2 -8 -1 -163 0 -250 0 -5 0 -26 0 -45 -1
-19 -1 -43 -1 -52 1 -50 1 -276 0 -293 -1 -11 -1 -26 -1 -32 1 -63 1 -107 -2
-156 -1 -31 0 -57 3 -57 3 0 4 -28 3 -62 -7 -163 -8 -268 -3 -268 3 0 3 -27 0
-61 -3 -33 -2 -63 2 -65 5 -3 6 -9 3 -14 -7 -11 -10 -168 -3 -175 2 -3 2 -27
-2 -54 -3 -27 -3 -57 0 -67 4 -10 4 -32 0 -49 -14 -69 -33 -65 320 -65 226 0
319 3 322 11 2 6 1 36 -2 65 -3 30 -4 57 -2 59 7 7 4 254 -3 265 -3 6 -3 10 2
10 4 0 8 72 8 160 0 88 -2 160 -5 160 -3 0 -3 27 0 61 3 33 2 62 -2 65 -4 3
-5 10 -2 17 6 17 10 177 4 177 -3 0 -3 27 0 61 3 33 2 62 -2 65 -4 3 -5 10 -2
17 6 17 10 177 4 177 -3 0 -3 27 0 61 3 33 2 62 -2 65 -4 3 -5 10 -2 17 6 17
10 177 4 177 -3 0 -3 27 0 61 3 33 2 62 -2 65 -4 3 -5 10 -2 17 6 17 10 177 4
177 -3 0 -3 27 0 61 3 33 2 62 -2 65 -4 3 -5 10 -2 17 6 17 10 177 4 177 -3 0
-3 27 0 61 3 33 2 62 -2 65 -4 3 -5 10 -2 17 6 17 10 177 4 177 -3 0 -3 27 0
61 3 33 2 62 -2 65 -4 3 -5 10 -2 17 6 17 10 177 4 177 -3 0 -3 27 0 61 3 33
2 63 -2 65 -5 3 -6 9 -4 13 3 4 6 26 7 48 3 37 6 42 31 45 15 3 32 1 38 -2 6
-4 29 -4 50 0 22 4 41 5 44 3 7 -7 226 -9 226 -2 0 3 19 3 43 -1 23 -3 56 -3
74 1 17 3 37 3 43 -1 6 -4 29 -4 50 0 22 4 41 5 44 3 7 -7 226 -9 226 -2 0 3
20 3 43 -1 24 -3 52 -3 63 0 10 4 31 4 46 -1 14 -4 29 -5 31 -2 3 2 27 5 53 5
65 0 106 18 140 64 l29 37 2 687 c3 767 7 725 -67 779 -33 24 -48 28 -104 27
-36 -1 -66 1 -66 4 0 3 -26 4 -57 2 -32 -1 -76 -2 -98 -1 -22 0 -51 0 -65 -1
-14 -1 -32 -2 -40 -1 -98 3 -222 1 -229 -3 -5 -4 -12 -3 -15 2 -2 4 -32 5 -65
2 -34 -3 -61 -3 -61 0 0 3 -72 5 -160 5 -88 0 -160 -2 -160 -5 0 -8 -79 1 -85
10 -3 4 -7 25 -11 46 -30 190 -239 310 -424 243z"/>
<path d="M2483 5430 c-13 -5 -23 -7 -23 -5 0 15 -110 -62 -205 -144 -62 -53
-136 -116 -165 -141 -29 -25 -63 -54 -76 -65 -12 -11 -44 -38 -70 -60 -26 -22
-63 -54 -83 -71 -56 -49 -132 -114 -192 -166 -94 -80 -103 -88 -130 -111 -14
-12 -47 -40 -73 -62 -27 -22 -63 -53 -81 -70 -32 -30 -110 -96 -147 -125 -11
-8 -32 -26 -46 -40 -15 -14 -56 -50 -92 -80 -36 -30 -70 -59 -76 -65 -6 -5
-33 -28 -60 -50 -26 -22 -58 -49 -70 -60 -12 -11 -43 -38 -69 -60 -26 -22 -55
-47 -65 -55 -10 -8 -44 -37 -75 -65 -32 -27 -63 -55 -69 -60 -6 -6 -38 -33
-71 -61 -102 -85 -107 -89 -124 -104 -9 -9 -45 -40 -81 -70 -36 -30 -75 -65
-87 -77 -12 -13 -25 -23 -28 -23 -8 0 -79 -64 -136 -123 -118 -122 -116 -318
4 -439 60 -61 123 -89 210 -94 118 -8 247 -9 247 -3 0 3 19 3 43 0 l42 -6 2
-100 c1 -55 3 -104 4 -110 1 -5 1 -14 0 -20 -3 -13 -3 -208 -1 -220 1 -5 2
-14 1 -20 -2 -8 -1 -163 0 -250 0 -5 0 -26 0 -45 -1 -19 -1 -43 -1 -52 1 -50
1 -276 0 -293 -1 -11 -1 -26 -1 -32 1 -63 1 -107 -2 -156 -1 -31 0 -57 3 -57
3 0 4 -28 3 -62 -7 -163 -8 -268 -3 -268 3 0 3 -27 0 -61 -3 -33 -2 -63 2 -65
5 -3 6 -9 3 -14 -8 -12 -8 -91 0 -139 10 -65 43 -130 92 -177 92 -92 122 -96
578 -92 361 3 371 4 416 26 54 27 129 90 129 109 0 7 4 13 9 13 21 0 56 132
51 195 -1 17 -2 37 -1 45 1 8 1 29 0 45 -1 17 -1 37 0 45 1 8 1 29 0 45 -1 17
-1 35 -1 40 0 6 1 53 2 105 1 52 1 100 0 105 -1 6 -2 15 -1 20 2 8 1 163 0
250 0 6 0 26 0 45 1 19 1 44 1 55 0 22 -2 124 -2 140 0 34 17 97 39 140 62
120 190 184 351 176 30 -2 40 -2 97 -2 33 0 67 0 75 0 28 -1 219 0 243 2 6 0
28 0 47 0 19 -1 42 0 50 0 51 3 158 -15 196 -33 60 -28 124 -92 154 -153 19
-40 24 -67 24 -137 1 -49 3 -88 6 -88 3 0 3 -27 0 -61 -3 -33 -2 -62 2 -65 4
-3 5 -10 2 -17 -6 -17 -10 -177 -4 -177 3 0 3 -27 0 -61 -3 -33 -2 -63 2 -65
5 -3 6 -10 2 -15 -3 -6 -5 -49 -4 -97 0 -48 1 -96 0 -107 0 -11 -2 -44 -3 -73
-1 -28 0 -52 3 -52 3 0 5 -30 4 -68 -1 -139 61 -243 184 -303 46 -24 52 -24
408 -27 l361 -3 5 25 c3 14 3 28 0 31 -3 3 -5 35 -4 72 1 60 2 129 1 166 0 6
0 32 0 57 1 25 1 66 1 93 0 26 0 53 0 60 0 6 0 55 0 107 -1 52 -1 113 -1 135
0 22 1 60 1 85 0 25 0 76 0 113 0 38 -2 73 -5 77 -3 5 -1 11 4 15 6 3 7 16 3
28 -4 12 -6 37 -4 55 1 17 2 39 2 47 0 16 0 94 0 123 0 9 0 40 -1 69 -1 28 2
56 6 62 3 6 3 11 -2 11 -4 0 -8 65 -8 145 0 80 3 145 7 145 4 0 5 7 1 15 -8
23 -9 145 -1 145 4 0 4 10 0 23 -4 12 -6 36 -5 52 2 29 3 65 3 155 0 25 0 76
0 113 0 38 -2 73 -5 77 -3 5 -1 11 4 15 6 3 7 16 3 28 -4 12 -6 37 -4 55 1 17
2 39 2 47 0 16 0 94 0 123 0 9 0 40 -1 69 -1 28 2 56 6 62 3 6 3 11 -2 11 -4
0 -8 65 -8 145 0 80 3 145 7 145 4 0 5 7 1 15 -9 24 -9 145 0 145 5 0 5 5 1
12 -4 6 -6 39 -5 72 1 34 2 68 2 76 -2 98 -2 137 -1 145 1 6 2 22 1 37 -1 27
-26 51 -280 267 -30 25 -62 53 -71 61 -9 8 -43 37 -75 65 -33 27 -73 62 -90
77 -38 34 -63 55 -115 98 -24 19 -48 40 -54 45 -26 23 -153 133 -176 152 -29
24 -255 219 -316 272 -23 20 -52 45 -65 55 -13 11 -59 50 -102 87 -43 37 -99
77 -125 89 -51 24 -171 36 -209 20z"/>
</g>
</svg>
